<mxfile host="app.diagrams.net" agent="Mozilla/5.0 (Windows NT 10.0; Win64; x64) AppleWebKit/537.36 (KHTML, like Gecko) Chrome/128.0.0.0 Safari/537.36" version="24.7.8">
  <diagram name="Page-1" id="YeTYIrh1e_SwZXb2T8Ts">
    <mxGraphModel dx="1194" dy="750" grid="1" gridSize="10" guides="1" tooltips="1" connect="1" arrows="1" fold="1" page="1" pageScale="1" pageWidth="850" pageHeight="1100" math="0" shadow="0">
      <root>
        <mxCell id="0" />
        <mxCell id="1" parent="0" />
        <mxCell id="gx1trBCcvtTcs13WcKYT-20" value="" style="whiteSpace=wrap;html=1;aspect=fixed;" vertex="1" parent="1">
          <mxGeometry x="201" y="70" width="530" height="530" as="geometry" />
        </mxCell>
        <mxCell id="gx1trBCcvtTcs13WcKYT-1" value="Shared Prod&amp;nbsp;" style="points=[[0,0],[0.25,0],[0.5,0],[0.75,0],[1,0],[1,0.25],[1,0.5],[1,0.75],[1,1],[0.75,1],[0.5,1],[0.25,1],[0,1],[0,0.75],[0,0.5],[0,0.25]];outlineConnect=0;gradientColor=none;html=1;whiteSpace=wrap;fontSize=12;fontStyle=0;container=1;pointerEvents=0;collapsible=0;recursiveResize=0;shape=mxgraph.aws4.group;grIcon=mxgraph.aws4.group_vpc2;strokeColor=#8C4FFF;fillColor=none;verticalAlign=top;align=left;spacingLeft=30;fontColor=#AAB7B8;dashed=0;" vertex="1" parent="1">
          <mxGeometry x="280" y="440" width="130" height="130" as="geometry" />
        </mxCell>
        <mxCell id="gx1trBCcvtTcs13WcKYT-18" value="Amazon EC2" style="sketch=0;outlineConnect=0;fontColor=#232F3E;gradientColor=none;strokeColor=#ffffff;fillColor=#232F3E;dashed=0;verticalLabelPosition=middle;verticalAlign=bottom;align=center;html=1;whiteSpace=wrap;fontSize=10;fontStyle=0;spacing=3;shape=mxgraph.aws4.productIcon;prIcon=mxgraph.aws4.ec2;" vertex="1" parent="gx1trBCcvtTcs13WcKYT-1">
          <mxGeometry x="41" y="38" width="50" height="47" as="geometry" />
        </mxCell>
        <mxCell id="gx1trBCcvtTcs13WcKYT-2" value="Test Env" style="points=[[0,0],[0.25,0],[0.5,0],[0.75,0],[1,0],[1,0.25],[1,0.5],[1,0.75],[1,1],[0.75,1],[0.5,1],[0.25,1],[0,1],[0,0.75],[0,0.5],[0,0.25]];outlineConnect=0;gradientColor=none;html=1;whiteSpace=wrap;fontSize=12;fontStyle=0;container=1;pointerEvents=0;collapsible=0;recursiveResize=0;shape=mxgraph.aws4.group;grIcon=mxgraph.aws4.group_vpc2;strokeColor=#8C4FFF;fillColor=none;verticalAlign=top;align=left;spacingLeft=30;fontColor=#AAB7B8;dashed=0;" vertex="1" parent="1">
          <mxGeometry x="519" y="274" width="130" height="130" as="geometry" />
        </mxCell>
        <mxCell id="gx1trBCcvtTcs13WcKYT-15" value="Amazon EC2" style="sketch=0;outlineConnect=0;fontColor=#232F3E;gradientColor=none;strokeColor=#ffffff;fillColor=#232F3E;dashed=0;verticalLabelPosition=middle;verticalAlign=bottom;align=center;html=1;whiteSpace=wrap;fontSize=10;fontStyle=0;spacing=3;shape=mxgraph.aws4.productIcon;prIcon=mxgraph.aws4.ec2;" vertex="1" parent="gx1trBCcvtTcs13WcKYT-2">
          <mxGeometry x="69" y="26" width="50" height="40" as="geometry" />
        </mxCell>
        <mxCell id="gx1trBCcvtTcs13WcKYT-14" value="Amazon EC2" style="sketch=0;outlineConnect=0;fontColor=#232F3E;gradientColor=none;strokeColor=#ffffff;fillColor=#232F3E;dashed=0;verticalLabelPosition=middle;verticalAlign=bottom;align=center;html=1;whiteSpace=wrap;fontSize=10;fontStyle=0;spacing=3;shape=mxgraph.aws4.productIcon;prIcon=mxgraph.aws4.ec2;" vertex="1" parent="gx1trBCcvtTcs13WcKYT-2">
          <mxGeometry x="9" y="76" width="50" height="47" as="geometry" />
        </mxCell>
        <mxCell id="gx1trBCcvtTcs13WcKYT-3" value="Shared Dev/Test" style="points=[[0,0],[0.25,0],[0.5,0],[0.75,0],[1,0],[1,0.25],[1,0.5],[1,0.75],[1,1],[0.75,1],[0.5,1],[0.25,1],[0,1],[0,0.75],[0,0.5],[0,0.25]];outlineConnect=0;gradientColor=none;html=1;whiteSpace=wrap;fontSize=12;fontStyle=0;container=1;pointerEvents=0;collapsible=0;recursiveResize=0;shape=mxgraph.aws4.group;grIcon=mxgraph.aws4.group_vpc2;strokeColor=#8C4FFF;fillColor=none;verticalAlign=top;align=left;spacingLeft=30;fontColor=#AAB7B8;dashed=0;" vertex="1" parent="1">
          <mxGeometry x="280" y="104" width="130" height="130" as="geometry" />
        </mxCell>
        <mxCell id="gx1trBCcvtTcs13WcKYT-38" value="" style="sketch=0;outlineConnect=0;fontColor=#232F3E;gradientColor=none;strokeColor=#ffffff;fillColor=#232F3E;dashed=0;verticalLabelPosition=middle;verticalAlign=bottom;align=center;html=1;whiteSpace=wrap;fontSize=10;fontStyle=0;spacing=3;shape=mxgraph.aws4.productIcon;prIcon=mxgraph.aws4.ec2;" vertex="1" parent="gx1trBCcvtTcs13WcKYT-3">
          <mxGeometry x="51" y="32" width="50" height="47" as="geometry" />
        </mxCell>
        <mxCell id="gx1trBCcvtTcs13WcKYT-4" value="Networking Env" style="points=[[0,0],[0.25,0],[0.5,0],[0.75,0],[1,0],[1,0.25],[1,0.5],[1,0.75],[1,1],[0.75,1],[0.5,1],[0.25,1],[0,1],[0,0.75],[0,0.5],[0,0.25]];outlineConnect=0;gradientColor=none;html=1;whiteSpace=wrap;fontSize=12;fontStyle=0;container=1;pointerEvents=0;collapsible=0;recursiveResize=0;shape=mxgraph.aws4.group;grIcon=mxgraph.aws4.group_vpc2;strokeColor=#8C4FFF;fillColor=none;verticalAlign=top;align=left;spacingLeft=30;fontColor=#AAB7B8;dashed=0;" vertex="1" parent="1">
          <mxGeometry x="280" y="274" width="130" height="130" as="geometry" />
        </mxCell>
        <mxCell id="gx1trBCcvtTcs13WcKYT-8" value="" style="html=1;strokeWidth=1;shadow=0;dashed=0;shape=mxgraph.ios7.misc.vpn;fillColor=#007AFF;strokeColor=none;buttonText=;strokeColor2=#222222;fontColor=#222222;fontSize=8;verticalLabelPosition=bottom;verticalAlign=top;align=center;sketch=0;" vertex="1" parent="gx1trBCcvtTcs13WcKYT-4">
          <mxGeometry x="56" y="41" width="20" height="22.5" as="geometry" />
        </mxCell>
        <mxCell id="gx1trBCcvtTcs13WcKYT-9" value="" style="strokeColor=#dddddd;shadow=1;strokeWidth=1;rounded=1;absoluteArcSize=1;arcSize=2;" vertex="1" parent="gx1trBCcvtTcs13WcKYT-4">
          <mxGeometry x="5" y="76" width="120" height="44" as="geometry" />
        </mxCell>
        <mxCell id="gx1trBCcvtTcs13WcKYT-10" value="Squid Proxy" style="sketch=0;dashed=0;connectable=0;html=1;fillColor=#757575;strokeColor=none;shape=mxgraph.gcp2.squid_proxy;part=1;labelPosition=right;verticalLabelPosition=middle;align=left;verticalAlign=middle;spacingLeft=5;fontSize=12;" vertex="1" parent="gx1trBCcvtTcs13WcKYT-9">
          <mxGeometry y="0.5" width="32" height="32" relative="1" as="geometry">
            <mxPoint x="5" y="-16" as="offset" />
          </mxGeometry>
        </mxCell>
        <mxCell id="gx1trBCcvtTcs13WcKYT-5" value="Prod Env" style="points=[[0,0],[0.25,0],[0.5,0],[0.75,0],[1,0],[1,0.25],[1,0.5],[1,0.75],[1,1],[0.75,1],[0.5,1],[0.25,1],[0,1],[0,0.75],[0,0.5],[0,0.25]];outlineConnect=0;gradientColor=none;html=1;whiteSpace=wrap;fontSize=12;fontStyle=0;container=1;pointerEvents=0;collapsible=0;recursiveResize=0;shape=mxgraph.aws4.group;grIcon=mxgraph.aws4.group_vpc2;strokeColor=#8C4FFF;fillColor=none;verticalAlign=top;align=left;spacingLeft=30;fontColor=#AAB7B8;dashed=0;" vertex="1" parent="1">
          <mxGeometry x="519" y="440" width="130" height="130" as="geometry" />
        </mxCell>
        <mxCell id="gx1trBCcvtTcs13WcKYT-17" value="Amazon EC2" style="sketch=0;outlineConnect=0;fontColor=#232F3E;gradientColor=none;strokeColor=#ffffff;fillColor=#232F3E;dashed=0;verticalLabelPosition=middle;verticalAlign=bottom;align=center;html=1;whiteSpace=wrap;fontSize=10;fontStyle=0;spacing=3;shape=mxgraph.aws4.productIcon;prIcon=mxgraph.aws4.ec2;" vertex="1" parent="gx1trBCcvtTcs13WcKYT-5">
          <mxGeometry x="69" y="20" width="50" height="47" as="geometry" />
        </mxCell>
        <mxCell id="gx1trBCcvtTcs13WcKYT-16" value="Amazon EC2" style="sketch=0;outlineConnect=0;fontColor=#232F3E;gradientColor=none;strokeColor=#ffffff;fillColor=#232F3E;dashed=0;verticalLabelPosition=middle;verticalAlign=bottom;align=center;html=1;whiteSpace=wrap;fontSize=10;fontStyle=0;spacing=3;shape=mxgraph.aws4.productIcon;prIcon=mxgraph.aws4.ec2;" vertex="1" parent="gx1trBCcvtTcs13WcKYT-5">
          <mxGeometry x="9" y="75" width="50" height="47" as="geometry" />
        </mxCell>
        <mxCell id="gx1trBCcvtTcs13WcKYT-6" value="Dev Env" style="points=[[0,0],[0.25,0],[0.5,0],[0.75,0],[1,0],[1,0.25],[1,0.5],[1,0.75],[1,1],[0.75,1],[0.5,1],[0.25,1],[0,1],[0,0.75],[0,0.5],[0,0.25]];outlineConnect=0;gradientColor=none;html=1;whiteSpace=wrap;fontSize=12;fontStyle=0;container=1;pointerEvents=0;collapsible=0;recursiveResize=0;shape=mxgraph.aws4.group;grIcon=mxgraph.aws4.group_vpc2;strokeColor=#8C4FFF;fillColor=none;verticalAlign=top;align=left;spacingLeft=30;fontColor=#AAB7B8;dashed=0;" vertex="1" parent="1">
          <mxGeometry x="519" y="110" width="130" height="130" as="geometry" />
        </mxCell>
        <mxCell id="gx1trBCcvtTcs13WcKYT-12" value="Amazon EC2" style="sketch=0;outlineConnect=0;fontColor=#232F3E;gradientColor=none;strokeColor=#ffffff;fillColor=#232F3E;dashed=0;verticalLabelPosition=middle;verticalAlign=bottom;align=center;html=1;whiteSpace=wrap;fontSize=10;fontStyle=0;spacing=3;shape=mxgraph.aws4.productIcon;prIcon=mxgraph.aws4.ec2;" vertex="1" parent="gx1trBCcvtTcs13WcKYT-6">
          <mxGeometry x="69" y="23" width="50" height="40" as="geometry" />
        </mxCell>
        <mxCell id="gx1trBCcvtTcs13WcKYT-61" value="" style="verticalLabelPosition=bottom;html=1;verticalAlign=top;align=center;shape=mxgraph.floorplan.workstation;" vertex="1" parent="gx1trBCcvtTcs13WcKYT-6">
          <mxGeometry x="-233" y="87" width="41" height="30" as="geometry" />
        </mxCell>
        <mxCell id="gx1trBCcvtTcs13WcKYT-13" value="Amazon EC2" style="sketch=0;outlineConnect=0;fontColor=#232F3E;gradientColor=none;strokeColor=#ffffff;fillColor=#232F3E;dashed=0;verticalLabelPosition=middle;verticalAlign=bottom;align=center;html=1;whiteSpace=wrap;fontSize=10;fontStyle=0;spacing=3;shape=mxgraph.aws4.productIcon;prIcon=mxgraph.aws4.ec2;" vertex="1" parent="1">
          <mxGeometry x="526" y="184" width="50" height="40" as="geometry" />
        </mxCell>
        <mxCell id="gx1trBCcvtTcs13WcKYT-21" value="AWS ORG ACCOUNT" style="text;strokeColor=none;align=center;fillColor=none;html=1;verticalAlign=middle;whiteSpace=wrap;rounded=0;" vertex="1" parent="1">
          <mxGeometry x="388" y="48" width="150" height="30" as="geometry" />
        </mxCell>
        <mxCell id="gx1trBCcvtTcs13WcKYT-22" value="DevOps&lt;span style=&quot;background-color: initial;&quot;&gt;&amp;nbsp;- Germany&lt;/span&gt;" style="sketch=0;pointerEvents=1;shadow=0;dashed=0;html=1;strokeColor=none;fillColor=#505050;labelPosition=center;verticalLabelPosition=bottom;verticalAlign=top;outlineConnect=0;align=center;shape=mxgraph.office.users.administrator;" vertex="1" parent="1">
          <mxGeometry x="70" y="120" width="58" height="56" as="geometry" />
        </mxCell>
        <mxCell id="gx1trBCcvtTcs13WcKYT-23" value="Developer - UK" style="sketch=0;pointerEvents=1;shadow=0;dashed=0;html=1;strokeColor=none;fillColor=#505050;labelPosition=center;verticalLabelPosition=bottom;verticalAlign=top;outlineConnect=0;align=center;shape=mxgraph.office.users.administrator;" vertex="1" parent="1">
          <mxGeometry x="70" y="240" width="58" height="56" as="geometry" />
        </mxCell>
        <mxCell id="gx1trBCcvtTcs13WcKYT-24" value="DevOps - USA" style="sketch=0;pointerEvents=1;shadow=0;dashed=0;html=1;strokeColor=none;fillColor=#505050;labelPosition=center;verticalLabelPosition=bottom;verticalAlign=top;outlineConnect=0;align=center;shape=mxgraph.office.users.administrator;" vertex="1" parent="1">
          <mxGeometry x="70" y="370" width="58" height="56" as="geometry" />
        </mxCell>
        <mxCell id="gx1trBCcvtTcs13WcKYT-25" value="Developer- India" style="sketch=0;pointerEvents=1;shadow=0;dashed=0;html=1;strokeColor=none;fillColor=#505050;labelPosition=center;verticalLabelPosition=bottom;verticalAlign=top;outlineConnect=0;align=center;shape=mxgraph.office.users.administrator;" vertex="1" parent="1">
          <mxGeometry x="70" y="494" width="58" height="56" as="geometry" />
        </mxCell>
        <mxCell id="gx1trBCcvtTcs13WcKYT-29" value="" style="shape=partialRectangle;whiteSpace=wrap;html=1;top=0;left=0;fillColor=none;" vertex="1" parent="1">
          <mxGeometry x="130" y="150" width="120" height="385" as="geometry" />
        </mxCell>
        <mxCell id="gx1trBCcvtTcs13WcKYT-31" value="" style="endArrow=none;html=1;rounded=0;entryX=1;entryY=0;entryDx=0;entryDy=0;" edge="1" parent="1" target="gx1trBCcvtTcs13WcKYT-29">
          <mxGeometry width="50" height="50" relative="1" as="geometry">
            <mxPoint x="130" y="150" as="sourcePoint" />
            <mxPoint x="210" y="150" as="targetPoint" />
            <Array as="points">
              <mxPoint x="170" y="150" />
            </Array>
          </mxGeometry>
        </mxCell>
        <mxCell id="gx1trBCcvtTcs13WcKYT-32" value="" style="endArrow=none;html=1;rounded=0;entryX=1;entryY=0;entryDx=0;entryDy=0;" edge="1" parent="1">
          <mxGeometry width="50" height="50" relative="1" as="geometry">
            <mxPoint x="129" y="404" as="sourcePoint" />
            <mxPoint x="249" y="404" as="targetPoint" />
            <Array as="points">
              <mxPoint x="169" y="404" />
            </Array>
          </mxGeometry>
        </mxCell>
        <mxCell id="gx1trBCcvtTcs13WcKYT-33" value="" style="endArrow=none;html=1;rounded=0;entryX=1;entryY=0;entryDx=0;entryDy=0;" edge="1" parent="1">
          <mxGeometry width="50" height="50" relative="1" as="geometry">
            <mxPoint x="130" y="281" as="sourcePoint" />
            <mxPoint x="250" y="281" as="targetPoint" />
            <Array as="points">
              <mxPoint x="170" y="281" />
            </Array>
          </mxGeometry>
        </mxCell>
        <mxCell id="gx1trBCcvtTcs13WcKYT-35" value="" style="endArrow=classic;html=1;rounded=0;" edge="1" parent="1">
          <mxGeometry width="50" height="50" relative="1" as="geometry">
            <mxPoint x="250" y="326" as="sourcePoint" />
            <mxPoint x="330" y="326" as="targetPoint" />
          </mxGeometry>
        </mxCell>
        <mxCell id="gx1trBCcvtTcs13WcKYT-36" value="" style="image;aspect=fixed;perimeter=ellipsePerimeter;html=1;align=center;shadow=0;dashed=0;fontColor=#4277BB;labelBackgroundColor=default;fontSize=12;spacingTop=3;image=img/lib/ibm/vpc/TransitGateway.svg;" vertex="1" parent="1">
          <mxGeometry x="369" y="306" width="41" height="41" as="geometry" />
        </mxCell>
        <mxCell id="gx1trBCcvtTcs13WcKYT-39" value="" style="endArrow=classic;html=1;rounded=0;exitX=0.525;exitY=0.222;exitDx=0;exitDy=0;exitPerimeter=0;" edge="1" parent="1">
          <mxGeometry width="50" height="50" relative="1" as="geometry">
            <mxPoint x="346.5" y="312.9949999999999" as="sourcePoint" />
            <mxPoint x="346.5" y="217" as="targetPoint" />
          </mxGeometry>
        </mxCell>
        <mxCell id="gx1trBCcvtTcs13WcKYT-40" value="" style="endArrow=classic;html=1;rounded=0;exitX=0.525;exitY=0.222;exitDx=0;exitDy=0;exitPerimeter=0;" edge="1" parent="1">
          <mxGeometry width="50" height="50" relative="1" as="geometry">
            <mxPoint x="346.5" y="342.0049999999999" as="sourcePoint" />
            <mxPoint x="347" y="452" as="targetPoint" />
          </mxGeometry>
        </mxCell>
        <mxCell id="gx1trBCcvtTcs13WcKYT-41" value="ssh" style="endArrow=classic;html=1;rounded=0;" edge="1" parent="1">
          <mxGeometry width="50" height="50" relative="1" as="geometry">
            <mxPoint x="410" y="163" as="sourcePoint" />
            <mxPoint x="550" y="163" as="targetPoint" />
          </mxGeometry>
        </mxCell>
        <mxCell id="gx1trBCcvtTcs13WcKYT-44" value="" style="endArrow=none;html=1;rounded=0;" edge="1" parent="1">
          <mxGeometry width="50" height="50" relative="1" as="geometry">
            <mxPoint x="410" y="203.5" as="sourcePoint" />
            <mxPoint x="470" y="204" as="targetPoint" />
          </mxGeometry>
        </mxCell>
        <mxCell id="gx1trBCcvtTcs13WcKYT-46" value="" style="endArrow=none;html=1;rounded=0;" edge="1" parent="1">
          <mxGeometry width="50" height="50" relative="1" as="geometry">
            <mxPoint x="470.5" y="337.5" as="sourcePoint" />
            <mxPoint x="470" y="204" as="targetPoint" />
          </mxGeometry>
        </mxCell>
        <mxCell id="gx1trBCcvtTcs13WcKYT-47" value="ssh" style="endArrow=classic;html=1;rounded=0;" edge="1" parent="1">
          <mxGeometry width="50" height="50" relative="1" as="geometry">
            <mxPoint x="470" y="338" as="sourcePoint" />
            <mxPoint x="570" y="338" as="targetPoint" />
          </mxGeometry>
        </mxCell>
        <mxCell id="gx1trBCcvtTcs13WcKYT-48" value="ssh" style="endArrow=classic;html=1;rounded=0;fillColor=#cdeb8b;strokeColor=#36393d;" edge="1" parent="1">
          <mxGeometry width="50" height="50" relative="1" as="geometry">
            <mxPoint x="411" y="502" as="sourcePoint" />
            <mxPoint x="551" y="502" as="targetPoint" />
          </mxGeometry>
        </mxCell>
        <mxCell id="gx1trBCcvtTcs13WcKYT-49" value="" style="endArrow=none;html=1;rounded=0;entryX=0.117;entryY=0.038;entryDx=0;entryDy=0;entryPerimeter=0;exitX=0.117;exitY=0.981;exitDx=0;exitDy=0;exitPerimeter=0;fillColor=#d5e8d4;strokeColor=#82b366;" edge="1" parent="1" source="gx1trBCcvtTcs13WcKYT-20" target="gx1trBCcvtTcs13WcKYT-20">
          <mxGeometry width="50" height="50" relative="1" as="geometry">
            <mxPoint x="263" y="512.5" as="sourcePoint" />
            <mxPoint x="263" y="172.5" as="targetPoint" />
          </mxGeometry>
        </mxCell>
        <mxCell id="gx1trBCcvtTcs13WcKYT-53" value="" style="endArrow=classic;html=1;rounded=0;fillColor=#d5e8d4;strokeColor=#82b366;" edge="1" parent="1">
          <mxGeometry width="50" height="50" relative="1" as="geometry">
            <mxPoint x="264" y="372" as="sourcePoint" />
            <mxPoint x="285" y="372" as="targetPoint" />
          </mxGeometry>
        </mxCell>
        <mxCell id="gx1trBCcvtTcs13WcKYT-57" value="" style="endArrow=none;html=1;rounded=0;fillColor=#d5e8d4;strokeColor=#82b366;" edge="1" parent="1">
          <mxGeometry width="50" height="50" relative="1" as="geometry">
            <mxPoint x="263" y="590" as="sourcePoint" />
            <mxPoint x="583" y="590" as="targetPoint" />
          </mxGeometry>
        </mxCell>
        <mxCell id="gx1trBCcvtTcs13WcKYT-58" value="" style="endArrow=none;html=1;rounded=0;fillColor=#d5e8d4;strokeColor=#82b366;" edge="1" parent="1">
          <mxGeometry width="50" height="50" relative="1" as="geometry">
            <mxPoint x="263" y="91" as="sourcePoint" />
            <mxPoint x="583" y="91" as="targetPoint" />
          </mxGeometry>
        </mxCell>
        <mxCell id="gx1trBCcvtTcs13WcKYT-59" value="" style="endArrow=classic;html=1;rounded=0;fillColor=#d5e8d4;strokeColor=#82b366;" edge="1" parent="1">
          <mxGeometry width="50" height="50" relative="1" as="geometry">
            <mxPoint x="582.5" y="91" as="sourcePoint" />
            <mxPoint x="583" y="120" as="targetPoint" />
          </mxGeometry>
        </mxCell>
        <mxCell id="gx1trBCcvtTcs13WcKYT-60" value="" style="endArrow=classic;html=1;rounded=0;fillColor=#d5e8d4;strokeColor=#82b366;" edge="1" parent="1">
          <mxGeometry width="50" height="50" relative="1" as="geometry">
            <mxPoint x="583" y="591" as="sourcePoint" />
            <mxPoint x="583" y="561" as="targetPoint" />
          </mxGeometry>
        </mxCell>
        <mxCell id="gx1trBCcvtTcs13WcKYT-62" value="" style="shape=partialRectangle;whiteSpace=wrap;html=1;bottom=0;right=0;fillColor=none;" vertex="1" parent="1">
          <mxGeometry x="304" y="166" width="26" height="26" as="geometry" />
        </mxCell>
        <mxCell id="gx1trBCcvtTcs13WcKYT-64" value="" style="shape=partialRectangle;whiteSpace=wrap;html=1;top=0;left=0;fillColor=none;" vertex="1" parent="1">
          <mxGeometry x="451" y="170" width="239" height="251" as="geometry" />
        </mxCell>
        <mxCell id="gx1trBCcvtTcs13WcKYT-65" value="" style="shape=partialRectangle;whiteSpace=wrap;html=1;right=0;top=0;bottom=0;fillColor=none;routingCenterX=-0.5;" vertex="1" parent="1">
          <mxGeometry x="690" y="404" width="120" height="106" as="geometry" />
        </mxCell>
        <mxCell id="gx1trBCcvtTcs13WcKYT-66" value="" style="shape=partialRectangle;whiteSpace=wrap;html=1;right=0;top=0;bottom=0;fillColor=none;routingCenterX=-0.5;" vertex="1" parent="1">
          <mxGeometry x="451" y="330" width="120" height="92" as="geometry" />
        </mxCell>
        <mxCell id="gx1trBCcvtTcs13WcKYT-67" value="" style="endArrow=classic;html=1;rounded=0;" edge="1" parent="1">
          <mxGeometry width="50" height="50" relative="1" as="geometry">
            <mxPoint x="690" y="338.5" as="sourcePoint" />
            <mxPoint x="646" y="338.5" as="targetPoint" />
          </mxGeometry>
        </mxCell>
        <mxCell id="gx1trBCcvtTcs13WcKYT-68" value="" style="endArrow=classic;html=1;rounded=0;" edge="1" parent="1">
          <mxGeometry width="50" height="50" relative="1" as="geometry">
            <mxPoint x="690" y="510" as="sourcePoint" />
            <mxPoint x="646" y="510" as="targetPoint" />
          </mxGeometry>
        </mxCell>
        <mxCell id="gx1trBCcvtTcs13WcKYT-69" value="" style="endArrow=classic;html=1;rounded=0;" edge="1" parent="1">
          <mxGeometry width="50" height="50" relative="1" as="geometry">
            <mxPoint x="452" y="331" as="sourcePoint" />
            <mxPoint x="408" y="331" as="targetPoint" />
          </mxGeometry>
        </mxCell>
        <mxCell id="gx1trBCcvtTcs13WcKYT-70" value="" style="endArrow=classic;html=1;rounded=0;" edge="1" parent="1">
          <mxGeometry width="50" height="50" relative="1" as="geometry">
            <mxPoint x="690" y="170" as="sourcePoint" />
            <mxPoint x="646" y="170" as="targetPoint" />
          </mxGeometry>
        </mxCell>
      </root>
    </mxGraphModel>
  </diagram>
</mxfile>
